<svg width="24" height="24" viewBox="0 0 24 24" fill="none" xmlns="http://www.w3.org/2000/svg">
<path d="M11.5962 11.9654C10.9648 11.9654 10.3333 11.8534 9.84116 11.6293L2.90366 8.46571C2.58632 8.32133 1.84616 7.89899 1.84616 7.10164C1.84616 6.3043 2.58632 5.88289 2.9046 5.73664L9.9021 2.54586C10.8663 2.10524 12.3213 2.10524 13.286 2.54586L20.2877 5.73664C20.606 5.88149 21.3462 6.30383 21.3462 7.10164C21.3462 7.89946 20.606 8.32039 20.2877 8.46617L13.3502 11.6293C12.859 11.8534 12.2276 11.9654 11.5962 11.9654Z" fill="#FF6B81"/>
<path d="M3.00739 8.23824L3.00719 8.23815C2.86216 8.17217 2.6274 8.04526 2.43213 7.85121C2.23947 7.65976 2.09616 7.41503 2.09616 7.10164C2.09616 6.78831 2.23942 6.54383 2.4322 6.35236C2.62749 6.15839 2.86238 6.0312 3.00868 5.96395C3.00878 5.9639 3.00888 5.96386 3.00898 5.96381L10.0058 2.77333L10.006 2.77324C10.4483 2.57115 11.0159 2.46539 11.5939 2.46539C12.1718 2.46539 12.7396 2.57115 13.1821 2.77326L13.1823 2.77335L20.1841 5.96413L20.1842 5.96419C20.3297 6.03042 20.5647 6.15745 20.7601 6.35161C20.9528 6.54315 21.0962 6.78799 21.0962 7.10164C21.0962 7.41524 20.9529 7.6597 20.7602 7.851C20.5649 8.04483 20.33 8.17179 20.1839 8.23877C20.1838 8.23881 20.1837 8.23884 20.1836 8.23888L13.2465 11.4018L13.2465 11.4018C12.796 11.6073 12.202 11.7154 11.5962 11.7154C10.9903 11.7154 10.3963 11.6073 9.94474 11.4018L3.00739 8.23824Z" stroke="#FCFCFC" stroke-opacity="0.4" stroke-width="0.5"/>
<path d="M20.2849 3.64231L19.5776 3.32309L17.7602 4.15465L13.354 6.17028C12.8618 6.39528 12.229 6.50731 11.599 6.50731C10.969 6.50731 10.3366 6.39528 9.84491 6.17028L5.43538 4.15465L3.61757 3.32309L2.90413 3.64371C2.58632 3.78856 1.84616 4.21371 1.84616 5.01059C1.84616 5.80746 2.58632 6.23309 2.90366 6.37793L9.84116 9.54809C10.3305 9.77309 10.9629 9.88559 11.5962 9.88559C12.2294 9.88559 12.859 9.77309 13.3512 9.54856L20.2826 6.37934C20.6018 6.2345 21.3462 5.81168 21.3462 5.01059C21.3462 4.2095 20.6069 3.78856 20.2849 3.64231Z" fill="#FF6B81"/>
<path d="M17.8642 4.38198L17.8642 4.38199L13.458 6.39762L13.4579 6.39764C12.9248 6.64133 12.2545 6.75731 11.599 6.75731C10.9435 6.75731 10.2736 6.64135 9.74098 6.39765C9.74095 6.39763 9.74092 6.39762 9.74089 6.39761L5.33145 4.38202L5.33138 4.38199L3.61665 3.59759L3.00722 3.87147C2.86224 3.9376 2.62764 4.06518 2.43244 4.25972C2.23953 4.45198 2.09616 4.69738 2.09616 5.01059C2.09616 5.32382 2.23955 5.56936 2.43245 5.76177C2.62789 5.95669 2.86277 6.08446 3.00747 6.1505L3.00757 6.15055L9.94507 9.3207L9.94559 9.32094C10.3938 9.52701 10.9883 9.63559 11.5962 9.63559C12.2036 9.63559 12.7957 9.52714 13.2472 9.3212L17.8642 4.38198ZM17.8642 4.38198L19.5783 3.59769L20.1815 3.86993C20.1816 3.86998 20.1817 3.87003 20.1818 3.87007C20.3294 3.93714 20.5648 4.06412 20.7601 4.25821C20.9527 4.44968 21.0962 4.69497 21.0962 5.01059C21.0962 5.3257 20.9519 5.57141 20.7581 5.76348C20.5616 5.95818 20.3254 6.08538 20.1793 6.15168L20.1786 6.15198L13.2474 9.32111L17.8642 4.38198Z" stroke="#FCFCFC" stroke-opacity="0.4" stroke-width="0.5"/>
<path d="M20.2849 1.05721L19.5776 0.738464L17.7602 1.56956L13.354 3.58284C12.8618 3.8069 12.229 3.9194 11.599 3.9194C10.969 3.9194 10.3366 3.80737 9.84491 3.58284L5.43538 1.56721L3.61757 0.738464L2.90413 1.05909C2.58632 1.20393 1.84616 1.62909 1.84616 2.42596C1.84616 3.22284 2.58632 3.648 2.90366 3.79237L9.84116 6.96065C10.3305 7.18471 10.9652 7.30096 11.5962 7.30096C12.2271 7.30096 12.8562 7.18471 13.3483 6.96018L20.2821 3.79284C20.6018 3.64846 21.3462 3.22565 21.3462 2.42596C21.3462 1.62628 20.6069 1.20393 20.2849 1.05721Z" fill="#FF6B81"/>
<path d="M17.8641 1.79695L17.8642 1.79691L19.5783 1.01302L20.1813 1.28471C20.1814 1.28478 20.1815 1.28485 20.1817 1.28491C20.3293 1.35219 20.5646 1.47962 20.76 1.67396C20.9528 1.8658 21.0962 2.11113 21.0962 2.42596C21.0962 2.74024 20.9521 2.98556 20.7582 3.17745C20.5616 3.37194 20.3253 3.49902 20.1792 3.56499L20.1782 3.56544L13.2446 6.73273C13.2445 6.73275 13.2445 6.73277 13.2445 6.73279C12.792 6.93917 12.2 7.05096 11.5962 7.05096C10.9918 7.05096 10.3944 6.93899 9.94523 6.73334L9.94501 6.73324L3.00752 3.56496L3.00719 3.56481C2.86261 3.49904 2.62778 3.37151 2.43238 3.17678C2.23953 2.98458 2.09616 2.73918 2.09616 2.42596C2.09616 2.11276 2.23953 1.86735 2.43244 1.67509C2.62764 1.48056 2.86224 1.35298 3.00722 1.28684L3.61683 1.01288L5.33145 1.79459L5.33167 1.79469L9.74098 3.81021L9.74107 3.81025C10.2736 4.05342 10.9434 4.1694 11.599 4.1694C12.2547 4.1694 12.9248 4.05291 13.4576 3.81037L13.4579 3.81023L17.8641 1.79695Z" stroke="#FCFCFC" stroke-opacity="0.4" stroke-width="0.5"/>
</svg>
