<svg width="21" height="12" viewBox="0 0 21 12" fill="none" xmlns="http://www.w3.org/2000/svg">
<path d="M10.8462 11.9654C10.1986 11.9654 9.55097 11.8534 9.04616 11.6293L1.93078 8.46571C1.6053 8.32133 0.846161 7.89899 0.846161 7.10164C0.846161 6.3043 1.6053 5.88289 1.93174 5.73664L9.10866 2.54586C10.0976 2.10524 11.5899 2.10524 12.5793 2.54586L19.7606 5.73664C20.087 5.88149 20.8462 6.30383 20.8462 7.10164C20.8462 7.89946 20.087 8.32039 19.7606 8.46617L12.6452 11.6293C12.1414 11.8534 11.4938 11.9654 10.8462 11.9654Z" fill="#FF6B81"/>
<path d="M2.03214 8.23718L2.03234 8.23727L9.14758 11.4008L2.03214 8.23718ZM2.03214 8.23718C1.88273 8.1709 1.64119 8.04356 1.44038 7.84899C1.24204 7.65683 1.09616 7.41271 1.09616 7.10164C1.09616 6.79063 1.24199 6.54676 1.44045 6.35458C1.64126 6.16011 1.88293 6.03248 2.03362 5.96494C2.03373 5.96489 2.03384 5.96484 2.03395 5.96479L9.21022 2.7743L9.21041 2.77422M2.03214 8.23718L9.21041 2.77422M9.21041 2.77422C9.66563 2.5714 10.2496 2.46539 10.8438 2.46539C11.438 2.46539 12.0221 2.57139 12.4776 2.77424L12.4778 2.77433M9.21041 2.77422L12.4778 2.77433M12.4778 2.77433L19.6591 5.96511L19.6592 5.96516M12.4778 2.77433L19.6592 5.96516M19.6592 5.96516C19.8091 6.03169 20.0509 6.15916 20.2518 6.35383C20.4502 6.54608 20.5962 6.79031 20.5962 7.10164C20.5962 7.41292 20.4503 7.65677 20.2519 7.84878C20.051 8.04324 19.8092 8.17067 19.6586 8.2379L12.5436 11.4009L12.5436 11.4009M19.6592 5.96516L12.5436 11.4009M12.5436 11.4009C12.0799 11.6071 11.469 11.7154 10.8462 11.7154C10.2235 11.7154 9.6125 11.6071 9.14773 11.4009L12.5436 11.4009Z" stroke="#FCFCFC" stroke-opacity="0.4" stroke-width="0.5"/>
<path d="M19.7577 3.64231L19.0322 3.32309L17.1683 4.15465L12.649 6.17028C12.1442 6.39528 11.4952 6.50731 10.849 6.50731C10.2029 6.50731 9.55433 6.39528 9.05001 6.17028L4.52741 4.15465L2.66299 3.32309L1.93126 3.64371C1.6053 3.78856 0.846161 4.21371 0.846161 5.01059C0.846161 5.80746 1.6053 6.23309 1.93078 6.37793L9.04616 9.54809C9.54808 9.77309 10.1966 9.88559 10.8462 9.88559C11.4957 9.88559 12.1414 9.77309 12.6462 9.54856L19.7553 6.37934C20.0827 6.2345 20.8462 5.81168 20.8462 5.01059C20.8462 4.2095 20.088 3.78856 19.7577 3.64231Z" fill="#FF6B81"/>
<path d="M17.2701 4.38297L17.2701 4.38296L19.0329 3.59653L19.6565 3.8709C19.6565 3.87092 19.6566 3.87094 19.6566 3.87095C19.8086 3.93829 20.0509 4.06574 20.2518 4.26043C20.4502 4.45261 20.5962 4.69728 20.5962 5.01059C20.5962 5.32338 20.4493 5.56847 20.2498 5.76127C20.0477 5.95648 19.8047 6.08412 19.6542 6.15071L19.6535 6.151L12.5446 9.32013C12.5445 9.32014 12.5445 9.32015 12.5445 9.32015C12.0797 9.52689 11.4706 9.63559 10.8462 9.63559C10.2214 9.63559 9.60979 9.52678 9.14843 9.31996L9.1479 9.31973L2.03252 6.14957L2.03242 6.14953C1.88333 6.08318 1.64167 5.95498 1.4407 5.75955C1.24212 5.56643 1.09616 5.32151 1.09616 5.01059C1.09616 4.69969 1.2421 4.45491 1.44069 4.26194C1.64143 4.06688 1.88283 3.93886 2.03221 3.87243L2.66209 3.59643L4.42558 4.38297L4.42564 4.383L8.94815 6.39859C8.94818 6.3986 8.94821 6.39861 8.94824 6.39862C9.49284 6.64157 10.1781 6.75731 10.849 6.75731C11.52 6.75731 12.2058 6.64156 12.7508 6.39862L12.7509 6.3986L17.2701 4.38297Z" stroke="#FCFCFC" stroke-opacity="0.4" stroke-width="0.5"/>
<path d="M19.7577 1.05721L19.0322 0.738464L17.1683 1.56956L12.649 3.58284C12.1442 3.8069 11.4952 3.9194 10.849 3.9194C10.2029 3.9194 9.55433 3.80737 9.05001 3.58284L4.52741 1.56721L2.66299 0.738464L1.93126 1.05909C1.6053 1.20393 0.846161 1.62909 0.846161 2.42596C0.846161 3.22284 1.6053 3.648 1.93078 3.79237L9.04616 6.96065C9.54808 7.18471 10.199 7.30096 10.8462 7.30096C11.4933 7.30096 12.1385 7.18471 12.6433 6.96018L19.7548 3.79284C20.0827 3.64846 20.8462 3.22565 20.8462 2.42596C20.8462 1.62628 20.088 1.20393 19.7577 1.05721V1.05721Z" fill="#FF6B81"/>
<path d="M19.6562 1.28569C19.6563 1.28574 19.6565 1.2858 19.6566 1.28586C19.8086 1.35343 20.0508 1.4813 20.2517 1.67618C20.4502 1.86873 20.5962 2.11344 20.5962 2.42596C20.5962 2.73792 20.4495 2.98263 20.2499 3.17524C20.0477 3.37025 19.8046 3.49776 19.6541 3.56404L19.6531 3.56447L12.5417 6.73176C12.076 6.9389 11.467 7.05096 10.8462 7.05096C10.2249 7.05096 9.61039 6.93875 9.14807 6.73237L9.14785 6.73227L2.03247 3.56399L2.03214 3.56384C1.88317 3.49776 1.64156 3.3698 1.44063 3.17456C1.24211 2.98165 1.09616 2.73687 1.09616 2.42596C1.09616 2.11507 1.2421 1.87028 1.44069 1.67731C1.64143 1.48226 1.88282 1.35424 2.0322 1.2878L2.66226 1.01173L4.42564 1.79556L4.42586 1.79566L8.94824 3.81119L8.94833 3.81123C9.49284 4.05365 10.1781 4.1694 10.849 4.1694C11.5202 4.1694 12.2057 4.05313 12.7505 3.81134L12.7508 3.8112L17.27 1.79792L17.2701 1.79789L19.033 1.01186L19.6562 1.28569Z" stroke="#FCFCFC" stroke-opacity="0.4" stroke-width="0.5"/>
</svg>
